#N canvas 446 193 810 311 10;
#X msg 145 84 info;
#X msg 147 51 set UDP 40001;
#X msg 58 46 63 1 127;
#X obj 112 166 print;
#X obj 112 124 medusa_send_midi drum;
#X connect 0 0 4 0;
#X connect 1 0 4 0;
#X connect 2 0 4 0;
#X connect 4 0 3 0;
