#N canvas 592 186 623 543 10;
#X obj 135 191 medusa_chat;
#X obj 135 220 print;
#X msg 135 159 Pode ser um teste...;
#X obj 127 84 medusa_chat;
#X obj 127 113 print;
#X msg 127 52 Pode ser um teste...;
#X obj 374 193 medusa_chat;
#X obj 374 222 print;
#X msg 374 161 Pode ser um teste...;
#X obj 372 85 medusa_chat;
#X obj 372 114 print;
#X msg 372 53 Pode ser um teste...;
#X connect 0 0 1 0;
#X connect 2 0 0 0;
#X connect 3 0 4 0;
#X connect 5 0 3 0;
#X connect 6 0 7 0;
#X connect 8 0 6 0;
#X connect 9 0 10 0;
#X connect 11 0 9 0;
